<svg xmlns="http://www.w3.org/2000/svg" width="336" height="176" viewBox="0 0 336 176">
    <g fill="none" fill-rule="evenodd">
        <path d="M0 0h336v176H0z"/>
        <path fill="#EBEBEB" fill-rule="nonzero" d="M24 32a8 8 0 1 1 0-16 8 8 0 0 1 0 16zm0 32a8 8 0 1 1 0-16 8 8 0 0 1 0 16zm0 32a8 8 0 1 1 0-16 8 8 0 0 1 0 16zm0 32a8 8 0 1 1 0-16 8 8 0 0 1 0 16zm0 32a8 8 0 1 1 0-16 8 8 0 0 1 0 16zM56 32a8 8 0 1 1 0-16 8 8 0 0 1 0 16zm0 32a8 8 0 1 1 0-16 8 8 0 0 1 0 16zm0 32a8 8 0 1 1 0-16 8 8 0 0 1 0 16zm0 32a8 8 0 1 1 0-16 8 8 0 0 1 0 16zm0 32a8 8 0 1 1 0-16 8 8 0 0 1 0 16zM88 32a8 8 0 1 1 0-16 8 8 0 0 1 0 16zm0 32a8 8 0 1 1 0-16 8 8 0 0 1 0 16zm0 32a8 8 0 1 1 0-16 8 8 0 0 1 0 16zm0 32a8 8 0 1 1 0-16 8 8 0 0 1 0 16zm0 32a8 8 0 1 1 0-16 8 8 0 0 1 0 16zm32-128a8 8 0 1 1 0-16 8 8 0 0 1 0 16zm0 32a8 8 0 1 1 0-16 8 8 0 0 1 0 16zm0 32a8 8 0 1 1 0-16 8 8 0 0 1 0 16zm0 32a8 8 0 1 1 0-16 8 8 0 0 1 0 16zm0 32a8 8 0 1 1 0-16 8 8 0 0 1 0 16zm32-128a8 8 0 1 1 0-16 8 8 0 0 1 0 16zm0 32a8 8 0 1 1 0-16 8 8 0 0 1 0 16zm0 32a8 8 0 1 1 0-16 8 8 0 0 1 0 16zm0 32a8 8 0 1 1 0-16 8 8 0 0 1 0 16zm0 32a8 8 0 1 1 0-16 8 8 0 0 1 0 16zm32-128a8 8 0 1 1 0-16 8 8 0 0 1 0 16zm0 32a8 8 0 1 1 0-16 8 8 0 0 1 0 16zm0 32a8 8 0 1 1 0-16 8 8 0 0 1 0 16zm0 32a8 8 0 1 1 0-16 8 8 0 0 1 0 16zm0 32a8 8 0 1 1 0-16 8 8 0 0 1 0 16zm32-128a8 8 0 1 1 0-16 8 8 0 0 1 0 16zm0 32a8 8 0 1 1 0-16 8 8 0 0 1 0 16zm0 32a8 8 0 1 1 0-16 8 8 0 0 1 0 16zm0 32a8 8 0 1 1 0-16 8 8 0 0 1 0 16zm0 32a8 8 0 1 1 0-16 8 8 0 0 1 0 16zm32-128a8 8 0 1 1 0-16 8 8 0 0 1 0 16zm0 32a8 8 0 1 1 0-16 8 8 0 0 1 0 16zm0 32a8 8 0 1 1 0-16 8 8 0 0 1 0 16zm0 32a8 8 0 1 1 0-16 8 8 0 0 1 0 16zm0 32a8 8 0 1 1 0-16 8 8 0 0 1 0 16zm32-128a8 8 0 1 1 0-16 8 8 0 0 1 0 16zm0 32a8 8 0 1 1 0-16 8 8 0 0 1 0 16zm0 32a8 8 0 1 1 0-16 8 8 0 0 1 0 16zm0 32a8 8 0 1 1 0-16 8 8 0 0 1 0 16zm0 32a8 8 0 1 1 0-16 8 8 0 0 1 0 16zm32-128a8 8 0 1 1 0-16 8 8 0 0 1 0 16zm0 32a8 8 0 1 1 0-16 8 8 0 0 1 0 16zm0 32a8 8 0 1 1 0-16 8 8 0 0 1 0 16zm0 32a8 8 0 1 1 0-16 8 8 0 0 1 0 16zm0 32a8 8 0 1 1 0-16 8 8 0 0 1 0 16z"/>
    </g>
</svg>
